<?xml version="1.0" encoding="UTF-8"?> <svg xmlns="http://www.w3.org/2000/svg" width="1200" height="1180" viewBox="0 0 1200 1180" fill="none"> <path d="M270.002 221.999L735.518 691L1545.5 -122.501L1080.02 -591.5L270.002 221.999Z" fill="#FCC400"></path> <path d="M966 459L1435 459.207L1200.4 693L966 459Z" fill="#E84744"></path> <path d="M-230 693L232 692.795L0.898575 462L-230 693Z" fill="#35AC6F"></path> <path d="M-230 462L232 461.795L0.898575 231L-230 462Z" fill="#35AC6F"></path> <path d="M-230 231L232 230.795L0.898575 -1.00929e-05L-230 231Z" fill="#35AC6F"></path> <path d="M232.434 1179.1L112 1057.58L352.859 1057.58L232.434 1179.1Z" fill="#39AFE4"></path> <path d="M473.301 693.001L352.867 693.001L352.867 814.525L593.727 814.525L473.301 693.001Z" fill="#39AFE4"></path> <path d="M352.738 814.525L232.304 693H473.164L352.738 814.525Z" fill="#39AFE4"></path> <path d="M835.207 815.001L955.641 936.525L714.781 936.525L835.207 815.001Z" fill="#39AFE4"></path> <path d="M352.876 1057.57L232.442 936.05L111.997 814.5L352.997 814.5L473.302 936.05L593.75 814.5L714 936L593.75 1057.57L352.876 1057.57Z" fill="#39AFE4"></path> </svg> 